PathFileType  4	(X/Y/Z) C:\Users\antoi\Documents\MyRepositories\mobilecap\ResultsAnalysis
DataRate	CameraRate	NumFrames	NumMarkers	Units	OrigDataRate	OrigDataStartFrame	OrigNumFrames
100.0	100.0	4	55	mm	100.0	1	502
Frame#	Time	r_knee			r_shank_antsup			r_ankle			r_calc			r_5meta			r_toe			L_knee			L_shank_antsup			L_ankle			L_calc			L_5meta			L_toe			r_mknee			r_mankle			L_mknee			L_mankle			r_sh2			r_sh3			r_sh4			L_sh2			L_sh3			r_thigh1			r_thigh2			r_thigh3			r_thigh4			r_thigh5			L_thigh1			L_thigh2			L_thigh3			L_thigh4			r.ASIS			r.PSIS			L.ASIS			L.PSIS			C7			R_Shoulder			L_Shoulder			R_Sternum			L_Sternum			R_humerus			R_elbow_med			R_elbow_lat			R_forearm			R_wrist_radius			R_wrist_ulna			L_humerus			L_elbow_med			L_elbow_lat			L_forearm			L_wrist_radius			L_wrist_ulna			R_HJC			L_HJC			R_HJC_reg			L_HJC_reg			
		X1	Y1	Z1	X2	Y2	Z2	X3	Y3	Z3	X4	Y4	Z4	X5	Y5	Z5	X6	Y6	Z6	X7	Y7	Z7	X8	Y8	Z8	X9	Y9	Z9	X10	Y10	Z10	X11	Y11	Z11	X12	Y12	Z12	X13	Y13	Z13	X14	Y14	Z14	X15	Y15	Z15	X16	Y16	Z16	X17	Y17	Z17	X18	Y18	Z18	X19	Y19	Z19	X20	Y20	Z20	X21	Y21	Z21	X22	Y22	Z22	X23	Y23	Z23	X24	Y24	Z24	X25	Y25	Z25	X26	Y26	Z26	X27	Y27	Z27	X28	Y28	Z28	X29	Y29	Z29	X30	Y30	Z30	X31	Y31	Z31	X32	Y32	Z32	X33	Y33	Z33	X34	Y34	Z34	X35	Y35	Z35	X36	Y36	Z36	X37	Y37	Z37	X38	Y38	Z38	X39	Y39	Z39	X40	Y40	Z40	X41	Y41	Z41	X42	Y42	Z42	X43	Y43	Z43	X44	Y44	Z44	X45	Y45	Z45	X46	Y46	Z46	X47	Y47	Z47	X48	Y48	Z48	X49	Y49	Z49	X50	Y50	Z50	X51	Y51	Z51	X52	Y52	Z52	X53	Y53	Z53	X54	Y54	Z54	X55	Y55	Z55	

1	0.00000000	-271.25535	541.82753	-447.37255	-246.90423	465.97446	-433.65865	-289.19615	101.92890	-442.84799	-349.73298	51.80289	-483.62268	-144.92393	38.18916	-410.50738	-113.47182	61.91134	-472.69419	-266.13905	541.70889	-769.59747	-239.81108	424.88661	-779.52900	-297.37387	98.93413	-758.79043	-364.40472	52.62350	-718.06237	-144.83482	33.43413	-792.41041	-119.63883	59.62242	-727.40147	-270.68034	535.44402	-570.42546	-263.58228	114.82864	-534.00427	-270.40106	543.67018	-642.32156	-270.51923	114.88673	-666.30225	-244.72027	353.58496	-421.93596	-320.26274	466.63435	-410.80766	-325.09658	350.17599	-407.71832	-326.82907	437.24586	-798.27917	-328.89249	315.97756	-796.64209	-189.68682	860.34636	-430.01844	-183.57052	748.68736	-441.59573	-235.23144	719.25031	-412.00787	-302.20626	849.21668	-424.42846	-288.77616	732.29957	-422.82185	-178.28663	864.57431	-786.63921	-179.69153	724.72279	-782.97755	-298.21439	859.73641	-802.43187	-288.07468	720.40452	-795.93916	-162.26493	1048.80398	-477.77040	-347.73151	1107.88694	-565.68117	-153.12058	1045.96177	-741.69826	-344.13630	1109.31200	-669.78360	-354.95786	1606.23436	-622.74043	-291.55983	1567.73388	-444.91770	-293.07890	1582.61485	-781.87124	-201.93521	1551.35301	-588.65729	-199.50281	1548.44630	-642.35240	-300.99075	1293.87462	-362.91474	-334.52829	1204.65745	-438.30432	-321.17147	1207.76112	-356.68832	-251.42634	1064.63771	-338.66506	-204.81634	958.34754	-346.31906	-248.00704	954.85321	-333.55667	-277.61816	1320.64305	-867.41650	-325.59238	1232.51061	-811.22663	-295.88260	1233.57554	-871.61613	-233.97450	1073.96373	-883.65844	-195.30641	981.48734	-869.13324	-230.35594	972.93345	-886.34399	-255.36254	979.64277	-490.41784	-244.56357	977.94126	-720.52631	-242.28159	976.84517	-519.10256	-236.26599	979.22961	-693.28941	
2	0.01000000	-271.23116	541.90242	-447.40123	-246.86802	466.06109	-433.66582	-289.19231	101.83085	-442.91707	-349.72916	51.88361	-483.67987	-144.96888	38.07078	-410.68036	-113.47641	61.97598	-472.64744	-266.14702	541.83378	-769.56812	-239.81250	424.96037	-779.49862	-297.32990	99.09771	-758.68634	-364.15789	52.60766	-717.87808	-144.81482	33.56209	-792.36660	-119.67796	59.61702	-727.30270	-270.67910	535.44621	-570.43126	-263.56431	114.95015	-533.98204	-270.37215	543.65049	-642.35970	-270.49953	114.96283	-666.33713	-244.76565	353.60392	-421.80716	-320.47901	466.32044	-410.89179	-325.05503	350.31141	-407.75088	-326.87710	437.36900	-798.21201	-328.87279	316.10188	-796.62084	-189.67554	860.32421	-430.03446	-183.63085	748.59718	-441.58229	-235.27329	719.29789	-412.04618	-301.90258	849.04631	-424.69900	-288.79357	732.22335	-422.85492	-178.31082	864.55119	-786.65469	-179.71079	724.79530	-782.97410	-298.22736	859.84365	-802.40398	-288.10514	720.50537	-795.89355	-162.27547	1048.75661	-477.82300	-347.73920	1107.86737	-565.65159	-153.10619	1046.06554	-741.67095	-344.20054	1109.24925	-669.75748	-355.05897	1606.25186	-622.72748	-291.61557	1567.75227	-444.90734	-293.08013	1582.69584	-781.84940	-201.98999	1551.40129	-588.72152	-199.51941	1548.57982	-642.37361	-301.05411	1293.79612	-362.95695	-334.60197	1204.72434	-438.36354	-321.24939	1207.73002	-356.75917	-251.46518	1064.66420	-338.66806	-204.85527	958.36662	-346.34934	-248.04172	954.88213	-333.54064	-277.64118	1320.72837	-867.39069	-325.74197	1232.53099	-811.15772	-295.90914	1233.65028	-871.57135	-233.98406	1074.03922	-883.56647	-195.33897	981.61926	-869.09735	-230.34945	973.01561	-886.22249	-255.33573	979.58099	-490.45313	-244.54246	977.98443	-720.56260	-242.25218	976.96692	-519.06662	-236.33305	979.27841	-693.20453	
3	0.02000000	-271.20785	541.97811	-447.41902	-246.82459	466.12645	-433.66846	-289.18765	101.82453	-442.91306	-349.71399	51.98688	-483.69487	-144.94871	38.06690	-410.67770	-113.46671	62.04676	-472.58205	-266.14395	541.96956	-769.56219	-239.79981	425.04309	-779.46005	-297.32051	99.24139	-758.61161	-364.09929	52.66236	-717.77429	-144.79958	33.68169	-792.31400	-119.70222	59.63291	-727.19162	-270.67421	535.43972	-570.43040	-263.54818	115.05380	-533.95147	-270.35217	543.63408	-642.37069	-270.46974	115.03951	-666.36405	-244.75513	353.60035	-421.82012	-320.51798	466.18466	-410.91519	-325.05535	350.37813	-407.78795	-326.90135	437.46440	-798.18843	-328.88128	316.19761	-796.53689	-189.66795	860.32243	-430.03532	-183.58820	748.60705	-441.57311	-235.26548	719.28338	-412.05686	-301.85057	848.96163	-424.76346	-288.77767	732.19118	-422.86152	-178.31222	864.54612	-786.65474	-179.69460	724.90041	-782.99740	-298.24502	859.98088	-802.37296	-288.12631	720.59873	-795.85921	-162.24271	1048.73534	-477.87329	-347.73660	1107.86049	-565.56811	-153.09554	1046.17186	-741.64284	-344.23656	1109.23240	-669.69196	-355.10685	1606.29713	-622.68946	-291.63161	1567.78275	-444.91038	-293.08374	1582.78248	-781.81308	-202.00576	1551.45611	-588.70106	-199.53259	1548.70565	-642.41616	-301.10054	1293.76057	-362.98644	-334.66987	1204.61768	-438.50426	-321.28409	1207.73527	-356.78109	-251.49650	1064.68630	-338.65060	-204.90756	958.35008	-346.38545	-248.12196	954.87458	-333.56527	-277.65660	1320.82491	-867.35805	-325.82491	1232.58309	-811.10473	-295.94530	1233.77098	-871.52984	-234.01046	1074.13455	-883.52129	-195.37235	981.75944	-869.06854	-230.36872	973.14918	-886.21304	-255.27410	979.54312	-490.46223	-244.52911	978.04731	-720.57464	-242.20068	977.05296	-519.06521	-236.34887	979.34667	-693.15254	
4	0.03000000	-271.19321	542.02463	-447.42707	-246.78968	466.16160	-433.71538	-289.21921	101.87647	-442.92465	-349.68949	52.08291	-483.65173	-144.87677	38.15899	-410.58070	-113.45535	62.12166	-472.51954	-266.14437	542.09125	-769.55568	-239.78657	425.12259	-779.42705	-297.33394	99.35371	-758.54845	-364.23386	52.76139	-717.69709	-144.79427	33.79154	-792.26517	-119.71598	59.65596	-727.10956	-270.66709	535.43435	-570.41573	-263.53609	115.12308	-533.91775	-270.34946	543.63413	-642.37172	-270.44851	115.08914	-666.36868	-244.72080	353.58365	-421.91525	-320.48685	466.19278	-410.90494	-325.07590	350.40696	-407.81732	-326.91587	437.54182	-798.17457	-328.91095	316.26788	-796.45629	-189.66553	860.33650	-430.03022	-183.52130	748.68175	-441.58880	-235.23118	719.27172	-412.07838	-301.93665	848.98052	-424.69720	-288.75006	732.21413	-422.87590	-178.30473	864.55310	-786.65371	-179.68032	725.00215	-782.96127	-298.26998	860.12646	-802.35544	-288.14153	720.68147	-795.83330	-162.21418	1048.76997	-477.89437	-347.75360	1107.89398	-565.49306	-153.09659	1046.26443	-741.60730	-344.25652	1109.28058	-669.60636	-355.11417	1606.37436	-622.64209	-291.65546	1567.81155	-444.90794	-293.09970	1582.86329	-781.77497	-202.00451	1551.51810	-588.63495	-199.53950	1548.79977	-642.39728	-301.14287	1293.76486	-363.00394	-334.68060	1204.39800	-438.64098	-321.31427	1207.76470	-356.79483	-251.53490	1064.69484	-338.62332	-204.96999	958.36914	-346.38678	-248.20455	954.87937	-333.59972	-277.67239	1320.91571	-867.33407	-325.87346	1232.66606	-811.05502	-295.99030	1233.88388	-871.48473	-234.03502	1074.22345	-883.46934	-195.40671	981.88395	-869.03662	-230.40309	973.29446	-886.22914	-255.23572	979.56577	-490.44094	-244.53617	978.12589	-720.55585	-242.17526	977.11218	-519.08464	-236.32911	979.43015	-693.13343	
